<svg xmlns="http://www.w3.org/2000/svg" viewBox="0 0 63.8 52.88"><defs><style>.cls-1{fill:#a0968c;}.cls-2{fill:#8ae872;}.cls-3{fill:#eadbb9;}.cls-4{fill:#ffafbb;}</style></defs><title>Asset 1</title><g id="Layer_2" data-name="Layer 2"><g id="Layer_1-2" data-name="Layer 1"><path class="cls-1" d="M63.06,31.72c-.51-7.15-9.55-6.63-15.76-6.27a4.69,4.69,0,0,0-3.22-1.15h-18A4.58,4.58,0,0,0,22.37,26a8.16,8.16,0,0,0-4.89.33,5.07,5.07,0,0,0-2.2-.51c-5.2-.08-17.5-1-14.37,8.26a5.22,5.22,0,0,0,4.82,3.67,53.76,53.76,0,0,0,11.07-.23c.95,1.91,2.41,1,5.39,1,8.71,0,15-1.2,25-1.2C52.36,37.28,63.7,40.69,63.06,31.72Z"/><path class="cls-2" d="M41.9,19.29c-2.72,1.44-6,1.47-9,2.31a33.16,33.16,0,0,0-11.75-2.21c-6.44,0-6.44,10,0,10,.72,0,4.87-.12,6.49.35a6,6,0,0,0,2.21,2.54,5.07,5.07,0,0,0,6.35-1.09c.39-.14.8-.3,1-.35,1.13-.26,2.27-.42,3.4-.65a23.4,23.4,0,0,0,6.32-2.26C52.63,24.91,47.59,16.27,41.9,19.29Z"/><path class="cls-3" d="M42.58,38.12H10.65c-3.79,0-5.35,3.47-4.68,6.32-1.74,2.84-.37,8.26,4.08,8,10.34-.56,19.52-.56,30.28-.14,6.11.24,17.16,3.07,17.72-6.88S48.2,38.12,42.58,38.12Z"/><path class="cls-3" d="M16.66,2.84S6.26,7,5.18,15,7.1,25.37,7.1,25.37l12.35,1,36-.55a3.86,3.86,0,0,0,3.4-4c-.12-3.57-1.42-15.7-7.05-16.25S42.78-.91,32.1,1,16.66,2.84,16.66,2.84Z"/><path d="M19.5,31.4A3.61,3.61,0,0,0,18,32.9a.88.88,0,0,0,.4,1.3.75.75,0,0,0,.5.1,1.05,1.05,0,0,0,.9-.5,1.58,1.58,0,0,1,.7-.7,1,1,0,0,0,.4-1.4A1.38,1.38,0,0,0,19.5,31.4Z"/><circle cx="36.6" cy="17" r="1.3"/><circle cx="25.8" cy="17" r="1.3"/><path class="cls-4" d="M11.76,27.24a1.16,1.16,0,0,0-.09-.14c-.17-1-1.76-1.2-1.93-.11a36.3,36.3,0,0,0-.56,5.1,2.05,2.05,0,0,0,.84,1.8,1,1,0,0,0,1.84,0C14,32.87,12.41,28.78,11.76,27.24Z"/><circle cx="14.9" cy="17" r="1.3"/><circle cx="30.8" cy="10.3" r="1.3"/><circle cx="19.9" cy="10.3" r="1.3"/><path d="M63.8,31.8a7,7,0,0,0-5.1-6.7A4.77,4.77,0,0,0,59.9,22V19.8C59.9,6.4,50.7,0,31.9,0s-28,6.5-28,19.8V22a4.3,4.3,0,0,0,1.2,3.1,7,7,0,0,0,1,13.6h0a6.12,6.12,0,0,0-1.5,4.6l.5,5A5,5,0,0,0,10,52.7H53.9a5,5,0,0,0,4.9-4.4l.5-5a5.53,5.53,0,0,0-1.5-4.6h0A7,7,0,0,0,63.8,31.8Zm-52-3.4a13.48,13.48,0,0,1,.8,3.5,1.6,1.6,0,0,1-3.2,0,13.48,13.48,0,0,1,.8-3.5,5.16,5.16,0,0,0,.2-1.1c.4.1.8.2,1.3.3A2,2,0,0,0,11.8,28.4ZM31.8,2c17.7,0,26,5.7,26,17.8V22a2.9,2.9,0,0,1-2.9,2.9H8.7a2.79,2.79,0,0,1-2.7-2h5.2a1,1,0,0,0,0-2H5.8V18.8h5.3a1,1,0,0,0,0-2H5.9a14.16,14.16,0,0,1,.4-2h4.8a1,1,0,0,0,0-2H6.9c.3-.7.6-1.4.9-2h3.3a.94.94,0,0,0,1-1,.94.94,0,0,0-1-1H9.2a13.36,13.36,0,0,1,2.1-2h1.6a.94.94,0,0,0,1-1,1.42,1.42,0,0,0-.2-.6C18.1,3.1,24,2,31.8,2ZM44.7,26.9a76.28,76.28,0,0,0-12.2,4.3l-.4.1a.45.45,0,0,1-.5,0,110.29,110.29,0,0,0-14.2-4.4ZM57.2,43.1l-.5,5a2.92,2.92,0,0,1-2.9,2.6H9.9a2.82,2.82,0,0,1-2.5-1.5h3.9a1,1,0,0,0,0-2H7l-.2-1.5h3.7a1,1,0,1,0,0-2H6.6l-.1-.6v-.9H9.4a1,1,0,1,0,0-2H7.3c0-.1.1-.1.1-.2a3.93,3.93,0,0,1,2.9-1.3H53.2A3.93,3.93,0,0,1,56.1,40,3.47,3.47,0,0,1,57.2,43.1Zm-.3-6.4H6.8a5.08,5.08,0,0,1-3.9-1.9H4.1a1,1,0,0,0,0-2H1.9a3.4,3.4,0,0,1-.1-1v-.3H4a1,1,0,1,0,0-2H2.3a4.94,4.94,0,0,1,4.4-2.7h1a.68.68,0,0,1,.6.4.45.45,0,0,1,0,.5,15.15,15.15,0,0,0-.9,4.2,3.6,3.6,0,0,0,7.2,0,14.87,14.87,0,0,0-.8-3.9,109.72,109.72,0,0,1,17,5,3.55,3.55,0,0,0,1,.2,3.55,3.55,0,0,0,1-.2l.4-.2c3-1.2,12-5,21.8-6.1h1.8a4.91,4.91,0,0,1,4.9,4.9A4.81,4.81,0,0,1,56.9,36.7Z"/></g></g></svg>